<svg fill="none" viewBox="0 0 170 18" xmlns="http://www.w3.org/2000/svg"><path d="m0 15.2729c1.09342 0 1.51613-.039 1.93039.0056 3.02099.3288 5.97717.0557 8.74451-1.2094 2.1925-1.0032 2.1502-1.0979 3.8044.588 2.6011-.9419 5.0444-2.1234 8.0316-1.973 2.3644.1171 4.7879-.6771 7.1692-1.1508 2.2629-.4515 4.5033-1.0116 6.9635-1.57168-.7609-.93909-1.4316-1.66361-1.9755-2.46895-.5861-.86942-1.13-1.98685-.217-2.78383.6876-.6019 1.8036-.91679 2.7561-.98088.9864-.06688 2.0065.30931 3.0069.51831 4.7147.98924 9.4998 1.00596 14.2765.92515 6.9353-.11704 13.8678-.3957 20.8003-.59076.7468-.02229 1.5696-.12261 2.2347.12818 4.5794 1.73328 9.2631.37898 13.8847.45144 4.5428.07245 9.0967-.36226 13.6427-.64093 6.786-.41799 13.577-.80811 20.355-1.3738 7.831-.65207 15.64-1.55493 23.472-2.206998 5.315-.443072 10.646-.718947 15.975-.93351617 3.131-.12539783 5.312 2.10668417 5.135 4.95460417-.104 1.65804-.623 2.06767-2.322 1.74163-3.565-.6855-7.074-.40127-10.579.43472-.978.23407-2.114.50159-3.021.23407-3.54-1.04498-7.062-.60469-10.596-.20899-10.692 1.20103-21.398 2.21257-32.16 2.56647-4.391.1449-8.776.44026-13.1636.65206-5.0472.2424-10.0972.4096-15.1388.719-7.4567.4542-14.9274.7969-22.3531 1.5688-7.8004.8109-15.5417 2.1596-23.3309 3.1015-3.4127.4124-6.8959.2592-10.3199.6019-3.2999.3316-6.5661 1.0032-9.8576 1.4574-.899.1254-2.0657.3484-2.6969-.0752-1.0568-.7106-1.9107-.5044-2.8914-.1783-1.4654.4876-2.86882.7189-4.28631-.2815-.44526-.3149-1.23433-.2731-1.84585-.209-1.9473.2006-3.00127-.0641-5.42764-1.8113z" fill="#C3C3C3"/></svg>