<svg fill="none" viewBox="0 0 290 10" xmlns="http://www.w3.org/2000/svg"><path d="m288.469 7.28606c-.712.14792-.911.22188-1.117.22736-15.915.25475-31.831.57251-47.753.73139-9.541.09588-19.11-.01095-28.658-.10957-2.919-.03013-5.805-.36433-8.725-.50403-3.359-.15888-6.738-.23284-10.096-.38898-2.92-.13697-5.826-.33146-8.733-.51499-1.706-.10683-3.386-.5369-4.921.29037-.507.27393-2.063.31502-3.146.32049-11.083.07397-22.16.10958-33.243.17532-1.583.00822-3.167.14244-4.75.18353-10.782.27667-21.563.74509-32.352.00548-1.096-.07396-2.412-.14244-3.352.02739-6.5384 1.18338-13.283.80536-20.0824.64374-2.7828-.06574-5.6204.50677-8.4649.55882-6.3744.11505-12.7694 0-19.137.1397-11.1107.24106-22.2831-.26845-33.3663.78344-4.0029.37798-8.6021-.07396-12.85169-.35063-3.25576-.21366-7.567059-2.58316-7.71099757-3.88707-.19877243-1.84629 2.66628757-3.03241 7.41626757-3.03514 17.95802-.00822 35.91612.07122 53.86732-.03835 12.6871-.07671 25.3674-.43281 38.0546-.61909 15.1821-.22462 30.3641-.41911 45.5461-.59443 14.689-.16983 29.384-.32871 44.08-.435544 8.561-.060265 17.135.079439 25.689-.032872 8.527-.112311 17.04-.594428 25.567-.608125 12.413-.019175 24.812-.558818 37.252-.005479 11.392.509511 14.881 2.60508 10.987 7.03727z" fill="#C3C3C3"/></svg>