<svg fill="none" viewBox="0 0 187 10" xmlns="http://www.w3.org/2000/svg"><path d="m.986924 2.71394c.459656-.14792.587816-.22188.720416-.22736 10.26276-.25476 20.52546-.57251 30.79266-.73139 6.1524-.09588 12.3224.01095 18.4791.10957 1.8829.03013 3.7436.36433 5.6264.50403 2.1657.15888 4.3447.23284 6.5104.38898 1.8828.13697 3.7568.33146 5.6308.51499 1.1005.10683 2.1834.5369 3.1734-.29036.3271-.27393 1.3304-.31502 2.0287-.3205 7.1468-.07396 14.2892-.10957 21.436-.17532 1.0209-.00821 2.0419-.14244 3.0629-.18353 6.9523-.27667 13.9043-.74509 20.8613-.00547.707.07396 1.556.14244 2.161-.0274 4.217-1.18337 8.566-.80535 12.95-.64373 1.795.06574 3.625-.50677 5.459-.55882 4.11-.115047 8.234 0 12.34-.1397 7.164-.241057 14.369.26845 21.515-.783437 2.582-.378023 5.547.073962 8.287.350631 2.1.213666 4.88 2.583156 4.973 3.887066.128 1.84628-1.72 3.0324-4.782 3.03514-11.58.00821-23.16-.07123-34.736.03835-8.181.07669-16.357.4328-24.538.61907-9.79.22463-19.58.41912-29.3698.59443-9.4716.16984-18.9476.32871-28.4236.43555-5.5204.06026-11.0495-.07945-16.5654.03287-5.4982.11231-10.9876.59442-16.4858.60812-8.0043.01917-15.9997.55878-24.02156.00547-7.345689-.50951-9.59537-2.60507-7.084916-7.03725z" fill="#C3C3C3"/></svg>