<svg fill="none" viewBox="0 0 260 13" xmlns="http://www.w3.org/2000/svg"><path d="m231.625 7.91423c-8.298.19128-16.353.32496-24.387.59851-2.3.07815-3.586-.35993-4.726-1.59807-.475.77538-.727 1.18261-1.034 1.68033-5.507 0-11.061-.02056-16.61.00823-2.737.0144-5.474.15014-8.215.17276-6.255.05142-12.511.0905-18.762.08433-2.363-.00206-4.759-.30028-7.08-.18305-4.877.24475-9.661-.15014-14.487-.22418-4.94-.0761-9.9.16865-14.836.08021-5.427-.09666-10.834-.45864-16.261-.61907-3.603-.10695-7.3489.22624-10.8046-.14191-6.8316-.72602-13.7514-.18305-20.5956-.70751-4.5782-.3517-9.3414-.09667-14.0163-.17894-6.7012-.11723-13.4151-.19127-20.0869-.46893-11.3929-.4751-22.7985-.67048-34.22087-.71779-2.5014-.01028-5.683859-1.85104-5.49467696-3.13237.21440596-1.41708 3.08155696-2.6655041 5.96553696-2.56061177 7.18051.26120277 14.35681.56765277 21.54151.79183477 2.6233.082268 5.2719-.074042 7.9036-.018511 3.7374.080212 7.4664.255038 11.1995.386658.8324.0288 1.6691.0761 2.5057.07199 3.0395-.01234 6.1757-.29411 9.0975-.02057 10.0182.93375 20.2551.0905 30.2691 1.04893 2.8966.27765 6.0118.00411 9.0303-.02057.5591-.00411 1.1729-.10078 1.6648-.01851 4.2294.70339 8.5634.05142 12.8394.26326 6.011.29822 12.048.49361 18.081.66637 1.922.05553 3.876-.17276 5.806-.14397 3.99.05965 7.975.24064 11.965.30645 3.893.06376 7.798.09873 11.691.05759 8.354-.08844 16.703-.28588 25.056-.34141 7.488-.04936 14.975.08227 22.462.02879 3.86-.02674 7.711-.29205 11.566-.43602 8.067-.30028 16.131-.66226 24.207-.85148 3.443-.08021 6.957.11106 10.384.36404 4.515.33524 5.301.90289 6.39 3.0789 1.131 2.24798-.412 3.73499-3.775 5.38446-6.021 2.9493-13.214 2.3508-20.327 2.3364-1.686-.0041-4.137-1.5713-4.217-2.5482-.059-.74045.177-1.48703.311-2.47837z" fill="#C3C3C3"/></svg>